<svg xmlns="http://www.w3.org/2000/svg" width="620" height="230" viewBox="0 0 620 230" fill="none" style="flex-shrink:0"><path d="M30 28C180 28 270 217 590 217" stroke="#4F7061" stroke-width=".9"/><path d="M95 10 Q220 115 490 225" stroke="#9BA7A0" stroke-width=".6"/><path d="M30 33C180 33 270 212 590 212" stroke="#A5B6AC" stroke-width=".9"/><path d="M107 10 Q224 115 481 225" stroke="#9BA7A0" stroke-width=".6"/><path d="M30 38C180 38 270 207 590 207" stroke="#A5B6AC" stroke-width=".9"/><path d="M119 10 Q228 115 472 225" stroke="#9BA7A0" stroke-width=".6"/><path d="M30 43C180 43 270 202 590 202" stroke="#A5B6AC" stroke-width=".9"/><path d="M131 10 Q232 115 463 225" stroke="#9BA7A0" stroke-width=".6"/><path d="M30 48C180 48 270 197 590 197" stroke="#4F7061" stroke-width=".9"/><path d="M143 10 Q236 115 454 225" stroke="#9BA7A0" stroke-width=".6"/><path d="M30 53C180 53 270 192 590 192" stroke="#A5B6AC" stroke-width=".9"/><path d="M155 10 Q240 115 445 225" stroke="#9BA7A0" stroke-width=".6"/><path d="M30 58C180 58 270 187 590 187" stroke="#A5B6AC" stroke-width=".9"/><path d="M167 10 Q244 115 436 225" stroke="#9BA7A0" stroke-width=".6"/><path d="M30 63C180 63 270 182 590 182" stroke="#A5B6AC" stroke-width=".9"/><path d="M179 10 Q248 115 427 225" stroke="#9BA7A0" stroke-width=".6"/><path d="M30 68C180 68 270 177 590 177" stroke="#4F7061" stroke-width=".9"/><path d="M191 10 Q252 115 418 225" stroke="#9BA7A0" stroke-width=".6"/><path d="M30 73C180 73 270 172 590 172" stroke="#A5B6AC" stroke-width=".9"/><path d="M203 10 Q256 115 409 225" stroke="#9BA7A0" stroke-width=".6"/><path d="M30 78C180 78 270 167 590 167" stroke="#A5B6AC" stroke-width=".9"/><path d="M215 10 Q260 115 400 225" stroke="#9BA7A0" stroke-width=".6"/><path d="M30 83C180 83 270 162 590 162" stroke="#A5B6AC" stroke-width=".9"/><path d="M227 10 Q264 115 391 225" stroke="#9BA7A0" stroke-width=".6"/><path d="M30 88C180 88 270 157 590 157" stroke="#4F7061" stroke-width=".9"/><path d="M239 10 Q268 115 382 225" stroke="#9BA7A0" stroke-width=".6"/><path d="M30 93C180 93 270 152 590 152" stroke="#A5B6AC" stroke-width=".9"/><path d="M251 10 Q272 115 373 225" stroke="#9BA7A0" stroke-width=".6"/><path d="M30 98C180 98 270 147 590 147" stroke="#A5B6AC" stroke-width=".9"/><path d="M263 10 Q276 115 364 225" stroke="#9BA7A0" stroke-width=".6"/><path d="M30 103C180 103 270 142 590 142" stroke="#A5B6AC" stroke-width=".9"/><path d="M275 10 Q280 115 355 225" stroke="#9BA7A0" stroke-width=".6"/><path d="M30 108C180 108 270 137 590 137" stroke="#4F7061" stroke-width=".9"/><path d="M287 10 Q284 115 346 225" stroke="#9BA7A0" stroke-width=".6"/><path d="M30 113C180 113 270 132 590 132" stroke="#A5B6AC" stroke-width=".9"/><path d="M299 10 Q288 115 337 225" stroke="#9BA7A0" stroke-width=".6"/><path d="M30 118C180 118 270 127 590 127" stroke="#A5B6AC" stroke-width=".9"/><path d="M311 10 Q292 115 328 225" stroke="#9BA7A0" stroke-width=".6"/><path d="M30 123C180 123 270 122 590 122" stroke="#A5B6AC" stroke-width=".9"/><path d="M323 10 Q296 115 319 225" stroke="#9BA7A0" stroke-width=".6"/><path d="M30 128C180 128 270 117 590 117" stroke="#4F7061" stroke-width=".9"/><path d="M335 10 Q300 115 310 225" stroke="#9BA7A0" stroke-width=".6"/><path d="M30 133C180 133 270 112 590 112" stroke="#A5B6AC" stroke-width=".9"/><path d="M347 10 Q304 115 301 225" stroke="#9BA7A0" stroke-width=".6"/><path d="M30 138C180 138 270 107 590 107" stroke="#A5B6AC" stroke-width=".9"/><path d="M359 10 Q308 115 292 225" stroke="#9BA7A0" stroke-width=".6"/><path d="M30 143C180 143 270 102 590 102" stroke="#A5B6AC" stroke-width=".9"/><path d="M371 10 Q312 115 283 225" stroke="#9BA7A0" stroke-width=".6"/><path d="M30 148C180 148 270 97 590 97" stroke="#4F7061" stroke-width=".9"/><path d="M383 10 Q316 115 274 225" stroke="#9BA7A0" stroke-width=".6"/><path d="M30 153C180 153 270 92 590 92" stroke="#A5B6AC" stroke-width=".9"/><path d="M395 10 Q320 115 265 225" stroke="#9BA7A0" stroke-width=".6"/><path d="M30 158C180 158 270 87 590 87" stroke="#A5B6AC" stroke-width=".9"/><path d="M407 10 Q324 115 256 225" stroke="#9BA7A0" stroke-width=".6"/><path d="M30 163C180 163 270 82 590 82" stroke="#A5B6AC" stroke-width=".9"/><path d="M419 10 Q328 115 247 225" stroke="#9BA7A0" stroke-width=".6"/><path d="M30 168C180 168 270 77 590 77" stroke="#4F7061" stroke-width=".9"/><path d="M431 10 Q332 115 238 225" stroke="#9BA7A0" stroke-width=".6"/><path d="M30 173C180 173 270 72 590 72" stroke="#A5B6AC" stroke-width=".9"/><path d="M443 10 Q336 115 229 225" stroke="#9BA7A0" stroke-width=".6"/><path d="M30 178C180 178 270 67 590 67" stroke="#A5B6AC" stroke-width=".9"/><path d="M455 10 Q340 115 220 225" stroke="#9BA7A0" stroke-width=".6"/><path d="M30 183C180 183 270 62 590 62" stroke="#A5B6AC" stroke-width=".9"/><path d="M467 10 Q344 115 211 225" stroke="#9BA7A0" stroke-width=".6"/><path d="M30 188C180 188 270 57 590 57" stroke="#4F7061" stroke-width=".9"/><path d="M479 10 Q348 115 202 225" stroke="#9BA7A0" stroke-width=".6"/><path d="M30 193C180 193 270 52 590 52" stroke="#A5B6AC" stroke-width=".9"/><path d="M491 10 Q352 115 193 225" stroke="#9BA7A0" stroke-width=".6"/><path d="M20 20h16m-8-8v16M590 210h16m-8-8v16" stroke="#294438"/></svg>
